<svg id="visual" viewBox="0 0 960 540" width="960" height="540" xmlns="http://www.w3.org/2000/svg" xmlns:xlink="http://www.w3.org/1999/xlink" version="1.1"><rect width="960" height="540" fill="#31475e"></rect><g><g transform="translate(57 45)"><path d="M0 -106.9L83.6 -66.7L104.2 23.8L46.4 96.3L-46.4 96.3L-104.2 23.8L-83.6 -66.7Z" fill="#3fb984"></path></g><g transform="translate(708 88)"><path d="M0 -66L51.6 -41.2L64.3 14.7L28.6 59.5L-28.6 59.5L-64.3 14.7L-51.6 -41.2Z" fill="#3fb984"></path></g><g transform="translate(823 510)"><path d="M0 -77L60.2 -48L75.1 17.1L33.4 69.4L-33.4 69.4L-75.1 17.1L-60.2 -48Z" fill="#3fb984"></path></g><g transform="translate(896 280)"><path d="M0 -45L35.2 -28.1L43.9 10L19.5 40.5L-19.5 40.5L-43.9 10L-35.2 -28.1Z" fill="#3fb984"></path></g><g transform="translate(287 458)"><path d="M0 -58L45.3 -36.2L56.5 12.9L25.2 52.3L-25.2 52.3L-56.5 12.9L-45.3 -36.2Z" fill="#3fb984"></path></g><g transform="translate(12 380)"><path d="M0 -101L79 -63L98.5 22.5L43.8 91L-43.8 91L-98.5 22.5L-79 -63Z" fill="#3fb984"></path></g><g transform="translate(609 440)"><path d="M0 -60L46.9 -37.4L58.5 13.4L26 54.1L-26 54.1L-58.5 13.4L-46.9 -37.4Z" fill="#3fb984"></path></g><g transform="translate(457 42)"><path d="M0 -81L63.3 -50.5L79 18L35.1 73L-35.1 73L-79 18L-63.3 -50.5Z" fill="#3fb984"></path></g></g></svg>